<?xml version="1.0" encoding="UTF-8" standalone="no"?>
<!DOCTYPE svg PUBLIC "-//W3C//DTD SVG 1.1//EN" "http://www.w3.org/Graphics/SVG/1.1/DTD/svg11.dtd">
<svg width="100%" height="100%" viewBox="0 0 118 101" version="1.1" xmlns="http://www.w3.org/2000/svg" xmlns:xlink="http://www.w3.org/1999/xlink" xml:space="preserve" xmlns:serif="http://www.serif.com/" style="fill-rule:evenodd;clip-rule:evenodd;stroke-linejoin:round;stroke-miterlimit:2;">
    <g transform="matrix(1,0,0,1,-2894,-6106)">
        <g transform="matrix(8.33333,0,0,8.33333,0,0)">
            <g transform="matrix(1,0,0,1,349.881,734.239)">
                <path d="M0,9.852C3.62,9.852 9.574,9.992 10.978,10.027L10.4,0.201C6.387,-0.147 2.251,-0.173 -1.903,0.124C-1.792,0.954 -1.694,1.808 -1.59,2.706C-1.319,5.045 -1.04,7.462 -0.502,9.853C-0.341,9.852 -0.173,9.852 0,9.852M11.273,10.59L11.267,10.59C11.187,10.588 3.192,10.385 -0.722,10.41L-0.723,10.41C-0.853,10.41 -0.965,10.321 -0.994,10.195C-1.572,7.704 -1.862,5.196 -2.143,2.77C-2.258,1.768 -2.368,0.822 -2.494,-0.093C-2.505,-0.169 -2.483,-0.247 -2.435,-0.306C-2.387,-0.366 -2.316,-0.403 -2.24,-0.409C2.127,-0.738 6.477,-0.711 10.689,-0.332C10.826,-0.32 10.933,-0.209 10.941,-0.071L11.551,10.295C11.556,10.373 11.527,10.45 11.474,10.505C11.421,10.56 11.349,10.59 11.273,10.59" style="fill:rgb(136,192,115);fill-rule:nonzero;"/>
            </g>
            <g transform="matrix(0.999991,-0.00431707,-0.00431707,-0.999991,348.012,736.977)">
                <path d="M-0,0.028C4.446,-0.017 8.293,0.072 12.74,0.027" style="fill:rgb(136,192,115);fill-rule:nonzero;"/>
            </g>
            <g transform="matrix(1,0,0,1,349.435,736.603)">
                <path d="M0,0.628C-0.47,0.628 -0.945,0.627 -1.426,0.624C-1.579,0.623 -1.703,0.498 -1.702,0.345C-1.701,0.191 -1.577,0.067 -1.424,0.067L-1.422,0.067C0.799,0.08 2.906,0.06 4.943,0.04C6.983,0.021 9.092,0 11.318,0.013C11.471,0.014 11.596,0.139 11.595,0.293C11.594,0.445 11.469,0.569 11.316,0.569L11.314,0.569C9.093,0.557 6.986,0.577 4.949,0.597C3.35,0.612 1.707,0.628 0,0.628" style="fill:rgb(136,192,115);fill-rule:nonzero;"/>
            </g>
            <g transform="matrix(0.306038,0.952019,0.952019,-0.306038,351.05,733.607)">
                <path d="M-0.778,-1.067C-0.031,-1.067 0.717,-1.066 1.464,-1.067" style="fill:rgb(136,192,115);fill-rule:nonzero;"/>
            </g>
            <g transform="matrix(1,0,0,1,350.482,732.88)">
                <path d="M0,2.725C-0.118,2.725 -0.227,2.65 -0.265,2.532L-0.951,0.398C-0.998,0.251 -0.917,0.094 -0.771,0.047C-0.625,0 -0.468,0.081 -0.421,0.227L0.265,2.362C0.312,2.508 0.231,2.664 0.085,2.711C0.057,2.721 0.028,2.725 0,2.725" style="fill:rgb(136,192,115);fill-rule:nonzero;"/>
            </g>
            <g transform="matrix(0.136653,0.990619,0.990619,-0.136653,358.875,733.92)">
                <path d="M-0.963,-1.106C-0.219,-1.105 0.525,-1.106 1.268,-1.106" style="fill:rgb(136,192,115);fill-rule:nonzero;"/>
            </g>
            <g transform="matrix(1,0,0,1,357.953,732.82)">
                <path d="M0,2.785C-0.137,2.785 -0.256,2.684 -0.275,2.545L-0.58,0.334C-0.601,0.181 -0.495,0.042 -0.343,0.02C-0.19,0 -0.05,0.106 -0.029,0.258L0.276,2.469C0.297,2.621 0.19,2.762 0.038,2.782C0.025,2.784 0.013,2.785 0,2.785" style="fill:rgb(136,192,115);fill-rule:nonzero;"/>
            </g>
            <text x="350.351px" y="742.495px" style="font-family:'Consolas', monospace;font-size:7.329px;fill:rgb(136,192,115);">06</text>
        </g>
    </g>
</svg>
