<?xml version="1.0" encoding="UTF-8" standalone="no"?>
<!DOCTYPE svg PUBLIC "-//W3C//DTD SVG 1.1//EN" "http://www.w3.org/Graphics/SVG/1.1/DTD/svg11.dtd">
<svg width="100%" height="100%" viewBox="0 0 146 166" version="1.1" xmlns="http://www.w3.org/2000/svg" xmlns:xlink="http://www.w3.org/1999/xlink" xml:space="preserve" xmlns:serif="http://www.serif.com/" style="fill-rule:evenodd;clip-rule:evenodd;stroke-linejoin:round;stroke-miterlimit:2;">
    <g transform="matrix(1,0,0,1,-2880,-6502)">
        <g transform="matrix(8.33333,0,0,8.33333,0,0)">
            <g transform="matrix(1,0,0,1,355.721,790.709)">
                <path d="M0,-7.524C-0.678,-6.908 -1.357,-6.293 -2.035,-5.676C-2.112,-5.606 -2.19,-5.535 -2.24,-5.443C-2.283,-5.364 -2.304,-5.274 -2.32,-5.185C-2.511,-4.14 -2.435,-2.873 -2.431,-1.827C-2.423,0 -1.588,-0.813 -0.347,-0.604C-1.113,-0.733 -0.09,-6.967 0,-7.524" style="fill:rgb(244,249,238);fill-rule:nonzero;"/>
            </g>
            <g transform="matrix(1,0,0,1,347.609,795.238)">
                <path d="M0,-0.94C0.101,-1.447 0.197,-1.977 0.505,-2.384C0.804,-2.78 1.261,-3.006 1.701,-3.22C3.339,-4.013 4.978,-4.806 6.616,-5.599C7.054,-5.812 7.713,-5.948 7.906,-5.49C6.351,-4.375 4.796,-3.26 3.241,-2.146C3.113,-2.054 2.981,-1.959 2.903,-1.821C2.804,-1.646 2.803,-1.433 2.806,-1.231C2.827,0.601 2.848,2.432 2.869,4.264C2.87,4.355 2.867,4.456 2.805,4.522C2.749,4.581 2.662,4.591 2.582,4.598C1.497,4.691 0.412,4.785 -0.673,4.877C-2.203,5.008 -1.486,4.04 -1.127,3.22C-0.566,1.94 -0.271,0.431 0,-0.94" style="fill:rgb(244,249,238);fill-rule:nonzero;"/>
            </g>
            <g transform="matrix(1,0,0,1,362.852,799.939)">
                <path d="M0,-6.77C0.013,-5.019 -0.005,-3.268 -0.006,-1.517C-0.006,-1.011 -0.004,-0.505 0,0.001C0.001,0.136 0.204,0.136 0.203,0.001C0.19,-1.75 0.208,-3.501 0.208,-5.252C0.208,-5.758 0.207,-6.264 0.203,-6.77C0.202,-6.905 -0.001,-6.906 0,-6.77" style="fill:rgb(136,192,115);fill-rule:nonzero;"/>
            </g>
            <g transform="matrix(1,0,0,1,359.087,799.925)">
                <path d="M0,0.106C0.273,0.098 0.541,0.11 0.812,0.137C1.07,0.165 1.328,0.126 1.587,0.126C2.364,0.125 3.141,0.218 3.918,0.165C4.048,0.156 4.049,-0.054 3.918,-0.045C3.141,0.008 2.364,-0.085 1.587,-0.084C1.328,-0.084 1.07,-0.045 0.812,-0.072C0.541,-0.1 0.273,-0.112 0,-0.104C-0.131,-0.1 -0.131,0.11 0,0.106" style="fill:rgb(136,192,115);fill-rule:nonzero;"/>
            </g>
            <g transform="matrix(1,0,0,1,350.664,788.927)">
                <path d="M0,4.408C1.681,3.296 3.363,2.183 5.044,1.07C5.519,0.756 5.995,0.441 6.47,0.127L6.367,0.127C7.9,1.155 9.394,2.241 10.882,3.337C11.333,3.669 11.785,4.002 12.237,4.333C12.345,4.411 12.446,4.229 12.34,4.151C10.85,3.06 9.371,1.951 7.856,0.894C7.397,0.574 6.935,0.258 6.47,-0.054C6.44,-0.073 6.396,-0.073 6.367,-0.054C4.686,1.058 3.004,2.171 1.323,3.283C0.848,3.597 0.373,3.912 -0.103,4.226C-0.212,4.3 -0.111,4.481 0,4.408" style="fill:rgb(136,192,115);fill-rule:nonzero;"/>
            </g>
            <g transform="matrix(1,0,0,1,350.511,799.902)">
                <path d="M0,-6.658C-0.028,-4.438 0.015,-2.219 0.035,0.001C0.036,0.056 0.082,0.11 0.137,0.107C1.454,0.042 2.771,0.135 4.088,0.071C4.219,0.065 4.219,-0.145 4.088,-0.139C2.771,-0.075 1.454,-0.168 0.137,-0.103C0.171,-0.068 0.205,-0.034 0.239,0.001C0.219,-2.219 0.176,-4.438 0.203,-6.658C0.205,-6.793 0.001,-6.793 0,-6.658" style="fill:rgb(136,192,115);fill-rule:nonzero;"/>
            </g>
            <g transform="matrix(1,0,0,1,354.516,799.95)">
                <path d="M0,-3.825C-0.022,-2.654 -0.063,-1.481 -0.067,-0.309C-0.068,-0.093 0.013,0.067 0.234,0.097C0.494,0.134 0.768,0.122 1.031,0.128C1.577,0.142 2.123,0.143 2.668,0.135C3.303,0.126 3.937,0.107 4.571,0.081C4.626,0.079 4.673,0.035 4.673,-0.023C4.678,-1.295 4.809,-2.562 4.709,-3.832C4.699,-3.966 4.495,-3.968 4.506,-3.832C4.605,-2.562 4.475,-1.295 4.469,-0.023C4.503,-0.058 4.537,-0.094 4.571,-0.129C3.54,-0.089 2.507,-0.06 1.475,-0.073C1.21,-0.077 0.946,-0.083 0.682,-0.092C0.559,-0.096 0.435,-0.097 0.312,-0.105C0.274,-0.107 0.218,-0.108 0.185,-0.131C0.122,-0.174 0.135,-0.268 0.137,-0.335C0.145,-0.878 0.157,-1.421 0.168,-1.964C0.18,-2.585 0.191,-3.205 0.204,-3.825C0.206,-3.961 0.002,-3.961 0,-3.825" style="fill:rgb(136,192,115);fill-rule:nonzero;"/>
            </g>
            <g transform="matrix(0.0349634,0.999389,0.999389,-0.0349634,356.707,793.839)">
                <path d="M2.257,-2.266C2.445,-0.74 2.515,0.796 2.466,2.332C2.462,2.462 2.252,2.47 2.257,2.339C2.305,0.803 2.235,-0.733 2.047,-2.258C2.03,-2.388 2.24,-2.394 2.257,-2.266" style="fill:rgb(136,192,115);fill-rule:nonzero;"/>
            </g>
            <g transform="matrix(1,0,0,1,354.594,793.339)">
                <path d="M0,2.805C0.673,2.163 1.286,1.461 1.929,0.789C2.088,0.622 2.25,0.457 2.414,0.295C2.453,0.257 2.493,0.218 2.532,0.18C2.55,0.163 2.581,0.123 2.6,0.116C2.595,0.117 2.547,0.083 2.59,0.123C2.667,0.197 2.727,0.317 2.789,0.405C3.052,0.783 3.307,1.166 3.563,1.549C3.852,1.98 4.141,2.41 4.442,2.832C4.519,2.94 4.696,2.835 4.618,2.726C4.04,1.918 3.507,1.076 2.938,0.261C2.858,0.147 2.734,-0.135 2.563,-0.096C2.479,-0.078 2.414,0.006 2.354,0.065C2.264,0.153 2.174,0.242 2.085,0.331C1.729,0.692 1.386,1.065 1.041,1.436C0.655,1.852 0.266,2.266 -0.144,2.657C-0.24,2.748 -0.096,2.896 0,2.805" style="fill:rgb(136,192,115);fill-rule:nonzero;"/>
            </g>
            <g transform="matrix(1,0,0,1,360.488,794.553)">
                <path d="M0,3.386C0.005,2.921 0.024,2.456 0.06,1.993C0.094,1.537 0.128,1.071 0.211,0.621C0.236,0.489 0.278,0.297 0.403,0.225C0.591,0.115 0.723,0.364 0.752,0.519C0.792,0.735 0.783,0.966 0.792,1.185C0.803,1.407 0.813,1.629 0.824,1.852C0.849,2.365 0.874,2.878 0.897,3.392C0.931,3.357 0.965,3.322 0.999,3.287C0.619,3.284 0.249,3.211 -0.129,3.284C-0.257,3.31 -0.203,3.512 -0.075,3.488C0.282,3.418 0.64,3.494 0.999,3.497C1.052,3.497 1.103,3.448 1.1,3.392C1.077,2.863 1.051,2.332 1.026,1.803C1.012,1.537 1,1.273 0.988,1.008C0.977,0.784 0.991,0.538 0.911,0.326C0.779,-0.018 0.366,-0.135 0.149,0.197C0.046,0.355 0.015,0.548 -0.01,0.733C-0.046,0.998 -0.077,1.264 -0.104,1.53C-0.164,2.147 -0.197,2.766 -0.204,3.386C-0.205,3.521 -0.001,3.521 0,3.386" style="fill:rgb(136,192,115);fill-rule:nonzero;"/>
            </g>
            <g transform="matrix(1,0,0,1,352.33,794.782)">
                <path d="M0,2.843C-0.025,2.415 -0.022,1.987 0.015,1.56C0.034,1.335 0.062,1.111 0.099,0.889C0.133,0.688 0.162,0.476 0.227,0.283C0.254,0.202 0.301,0.111 0.388,0.088C0.481,0.064 0.529,0.146 0.557,0.225C0.621,0.405 0.636,0.615 0.661,0.805C0.719,1.236 0.744,1.672 0.738,2.108C0.736,2.234 0.732,2.36 0.725,2.485C0.722,2.543 0.719,2.603 0.714,2.66C0.707,2.73 0.692,2.746 0.625,2.751C0.507,2.76 0.38,2.742 0.261,2.744C0.14,2.747 0.02,2.748 -0.102,2.738C-0.232,2.728 -0.231,2.938 -0.102,2.947C0.027,2.958 0.156,2.956 0.285,2.954C0.416,2.951 0.547,2.968 0.677,2.963C0.912,2.956 0.915,2.721 0.926,2.535C0.958,1.99 0.942,1.443 0.877,0.902C0.848,0.661 0.83,0.4 0.753,0.169C0.701,0.011 0.589,-0.135 0.412,-0.129C0.215,-0.124 0.088,0.052 0.031,0.228C-0.05,0.476 -0.086,0.748 -0.125,1.007C-0.214,1.614 -0.24,2.23 -0.204,2.843C-0.195,2.977 0.008,2.978 0,2.843" style="fill:rgb(136,192,115);fill-rule:nonzero;"/>
            </g>
            <g transform="matrix(1,0,0,1,347.65,795.56)">
                <path d="M0,2.436C-0.033,1.954 -0.041,1.47 -0.02,0.987C-0.01,0.766 0,0.542 0.027,0.323C0.038,0.234 0.059,0.078 0.168,0.062C0.271,0.046 0.269,0.207 0.282,0.281C0.36,0.746 0.401,1.216 0.407,1.689C0.409,1.817 0.408,1.945 0.404,2.074C0.402,2.134 0.426,2.323 0.376,2.366C0.336,2.401 0.189,2.364 0.141,2.358C0.06,2.349 -0.021,2.339 -0.102,2.331C-0.232,2.317 -0.231,2.527 -0.102,2.54C0.046,2.556 0.207,2.596 0.356,2.586C0.532,2.576 0.589,2.424 0.6,2.266C0.634,1.789 0.61,1.299 0.56,0.825C0.535,0.592 0.507,0.359 0.461,0.13C0.43,-0.028 0.342,-0.16 0.17,-0.15C-0.237,-0.127 -0.196,0.508 -0.213,0.793C-0.245,1.34 -0.241,1.889 -0.204,2.436C-0.194,2.57 0.009,2.571 0,2.436" style="fill:rgb(136,192,115);fill-rule:nonzero;"/>
            </g>
            <g transform="matrix(1,0,0,1,348.832,795.543)">
                <path d="M0,2.488C0.019,2.035 0.038,1.581 0.056,1.127C0.065,0.922 0.059,0.705 0.125,0.508C0.173,0.36 0.304,0.159 0.479,0.168C0.659,0.176 0.597,0.585 0.596,0.703C0.594,0.929 0.59,1.156 0.583,1.382C0.575,1.608 0.564,1.835 0.55,2.06C0.543,2.166 0.537,2.27 0.529,2.376C0.523,2.451 0.517,2.507 0.58,2.555C0.573,2.501 0.566,2.445 0.559,2.39C0.49,2.463 0.366,2.423 0.275,2.414C0.149,2.4 0.024,2.384 -0.102,2.384C-0.232,2.383 -0.233,2.592 -0.102,2.593C0.063,2.594 0.226,2.622 0.39,2.634C0.523,2.645 0.606,2.639 0.703,2.539C0.754,2.486 0.734,2.414 0.683,2.374C0.682,2.373 0.68,2.372 0.679,2.371C0.695,2.392 0.71,2.413 0.726,2.434C0.711,2.356 0.742,2.238 0.748,2.158C0.754,2.052 0.761,1.948 0.766,1.842C0.777,1.633 0.785,1.423 0.791,1.212C0.796,1.009 0.799,0.807 0.8,0.605C0.8,0.455 0.817,0.282 0.754,0.141C0.621,-0.157 0.256,-0.037 0.088,0.158C-0.128,0.411 -0.132,0.759 -0.145,1.078C-0.165,1.549 -0.184,2.018 -0.203,2.488C-0.209,2.624 -0.005,2.623 0,2.488" style="fill:rgb(136,192,115);fill-rule:nonzero;"/>
            </g>
            <g transform="matrix(1,0,0,1,345.962,800.053)">
                <path d="M0,-6.764C-0.025,-5.041 -0.022,-3.319 -0.007,-1.596C-0.004,-1.207 -0.042,-0.794 0.046,-0.412L0.243,-0.468C0.243,-0.463 0.244,-0.457 0.244,-0.452C0.227,-0.422 0.21,-0.392 0.194,-0.362C0.194,-0.362 0.195,-0.363 0.196,-0.363C0.17,-0.36 0.144,-0.356 0.118,-0.353C0.167,-0.345 0.293,-0.233 0.355,-0.194C0.475,-0.119 0.584,-0.078 0.721,-0.059C1.155,0.003 1.591,0.05 2.028,0.079C2.908,0.135 3.792,0.106 4.661,-0.048C4.79,-0.072 4.735,-0.274 4.607,-0.25C3.667,-0.083 2.707,-0.073 1.756,-0.151C1.518,-0.171 1.28,-0.196 1.042,-0.226C0.861,-0.248 0.672,-0.25 0.509,-0.344C0.41,-0.402 0.321,-0.483 0.22,-0.535C0.136,-0.578 0.002,-0.535 0.046,-0.412C0.092,-0.288 0.274,-0.335 0.243,-0.468C0.166,-0.801 0.2,-1.163 0.197,-1.503C0.193,-1.917 0.19,-2.331 0.188,-2.744C0.183,-3.576 0.182,-4.406 0.187,-5.237C0.19,-5.745 0.196,-6.254 0.204,-6.764C0.206,-6.899 0.002,-6.899 0,-6.764" style="fill:rgb(136,192,115);fill-rule:nonzero;"/>
            </g>
            <g transform="matrix(0.0247634,0.999693,0.999693,-0.0247634,348.1,790.811)">
                <path d="M2.405,-2.34C2.529,-0.743 2.576,0.858 2.615,2.46C2.618,2.591 2.408,2.596 2.405,2.465C2.366,0.864 2.319,-0.738 2.195,-2.335C2.185,-2.466 2.395,-2.47 2.405,-2.34" style="fill:rgb(136,192,115);fill-rule:nonzero;"/>
            </g>
            <g transform="matrix(0.999329,0.0366353,0.0366353,-0.999329,350.142,789.313)">
                <path d="M0.003,-0.063L3.442,-0.063C3.572,-0.063 3.564,0.147 3.434,0.147L-0.005,0.147C-0.136,0.147 -0.128,-0.063 0.003,-0.063" style="fill:rgb(136,192,115);fill-rule:nonzero;"/>
            </g>
            <g transform="matrix(0.698105,0.715996,0.715996,-0.698105,345.065,791.142)">
                <path d="M2.082,-0.875C2.239,1.056 2.228,2.999 2.289,4.937C2.293,5.069 2.086,5.07 2.082,4.938C2.022,3 2.032,1.056 1.876,-0.875C1.865,-1.007 2.071,-1.007 2.082,-0.875" style="fill:rgb(136,192,115);fill-rule:nonzero;"/>
            </g>
            <g transform="matrix(-0.999359,0.0357918,0.0357918,0.999359,353.755,790.069)">
                <path d="M0.07,-3.909C0.138,-2.608 0.205,-1.306 0.273,-0.005C0.281,0.13 0.077,0.137 0.07,0.002C0.002,-1.299 -0.066,-2.601 -0.134,-3.902C-0.141,-4.038 0.063,-4.045 0.07,-3.909" style="fill:rgb(136,192,115);fill-rule:nonzero;"/>
            </g>
            <g transform="matrix(0.154086,0.988057,0.988057,-0.154086,354.222,789.133)">
                <path d="M0.935,-0.797C1.03,-0.181 1.07,0.441 1.143,1.06C1.158,1.19 0.951,1.222 0.935,1.092C0.862,0.474 0.823,-0.149 0.728,-0.764C0.708,-0.894 0.915,-0.926 0.935,-0.797" style="fill:rgb(136,192,115);fill-rule:nonzero;"/>
            </g>
            <g transform="matrix(-0.996714,0.0809959,0.0809959,0.996714,355.594,789.965)">
                <path d="M0.135,-3.87C0.272,-2.587 0.341,-1.299 0.338,-0.01C0.337,0.124 0.135,0.143 0.135,0.006C0.138,-1.282 0.07,-2.571 -0.068,-3.854C-0.082,-3.988 0.121,-4.005 0.135,-3.87" style="fill:rgb(136,192,115);fill-rule:nonzero;"/>
            </g>
            <g transform="matrix(-0.999053,0.0435128,0.0435128,0.999053,358.164,789.607)">
                <path d="M0.014,-3.444C0.173,-2.305 0.241,-1.155 0.217,-0.006C0.214,0.128 0.011,0.138 0.014,0.003C0.037,-1.146 -0.03,-2.296 -0.189,-3.435C-0.208,-3.57 -0.005,-3.578 0.014,-3.444" style="fill:rgb(136,192,115);fill-rule:nonzero;"/>
            </g>
            <g transform="matrix(0.0704149,0.997518,0.997518,-0.0704149,355.489,783.056)">
                <path d="M3.067,-2.859C3.137,-0.815 3.207,1.23 3.275,3.275C3.281,3.406 3.072,3.422 3.067,3.29C2.998,1.245 2.928,-0.8 2.857,-2.844C2.853,-2.975 3.063,-2.99 3.067,-2.859" style="fill:rgb(136,192,115);fill-rule:nonzero;"/>
            </g>
            <g transform="matrix(-0.760982,0.648773,0.648773,0.760982,359.933,784.558)">
                <path d="M1.497,-4.065C1.597,-2.537 1.601,-1.008 1.7,0.517C1.708,0.649 1.505,0.684 1.498,0.552C1.398,-0.976 1.394,-2.505 1.295,-4.03C1.287,-4.162 1.49,-4.197 1.497,-4.065" style="fill:rgb(136,192,115);fill-rule:nonzero;"/>
            </g>
            <g transform="matrix(0.781597,0.623784,0.623784,-0.781597,352.029,784.863)">
                <path d="M1.588,-0.554C1.705,1.129 1.751,2.82 1.793,4.508C1.796,4.641 1.591,4.668 1.588,4.535C1.545,2.847 1.499,1.155 1.383,-0.528C1.373,-0.66 1.578,-0.686 1.588,-0.554" style="fill:rgb(136,192,115);fill-rule:nonzero;"/>
            </g>
            <g transform="matrix(-0.981571,-0.191095,-0.191095,0.981571,355.01,786.04)">
                <path d="M-0.35,-3.76C-0.259,-2.503 -0.123,-1.247 -0.147,0.016C-0.15,0.151 -0.352,0.168 -0.35,0.034C-0.326,-1.23 -0.462,-2.487 -0.554,-3.742C-0.563,-3.877 -0.36,-3.894 -0.35,-3.76" style="fill:rgb(136,192,115);fill-rule:nonzero;"/>
            </g>
            <g transform="matrix(-0.992482,0.122388,0.122388,0.992482,356.459,782.421)">
                <path d="M0.116,-2.009C0.159,-1.342 0.235,-0.68 0.317,-0.016C0.334,0.118 0.132,0.143 0.116,0.009C0.034,-0.655 -0.043,-1.317 -0.087,-1.984C-0.095,-2.119 0.107,-2.145 0.116,-2.009" style="fill:rgb(136,192,115);fill-rule:nonzero;"/>
            </g>
            <g transform="matrix(0.157815,0.987469,0.987469,-0.157815,355.959,780.549)">
                <path d="M0.662,-0.557C0.717,-0.122 0.801,0.308 0.87,0.741C0.89,0.87 0.683,0.904 0.662,0.774C0.593,0.342 0.51,-0.089 0.455,-0.523C0.438,-0.652 0.646,-0.687 0.662,-0.557" style="fill:rgb(136,192,115);fill-rule:nonzero;"/>
            </g>
            <g transform="matrix(1,0,0,1,356.591,787.041)">
                <path d="M0,1.19C-0.039,0.949 -0.041,0.696 0.001,0.456C0.03,0.294 0.111,0.04 0.317,0.061C0.486,0.079 0.484,0.336 0.488,0.462C0.495,0.726 0.494,0.991 0.485,1.254C0.528,1.221 0.57,1.187 0.613,1.154C0.383,1.11 0.149,1.096 -0.084,1.116C-0.214,1.127 -0.215,1.337 -0.084,1.326C0.131,1.307 0.347,1.316 0.56,1.356C0.625,1.369 0.686,1.328 0.688,1.254C0.696,1.007 0.698,0.76 0.692,0.512C0.688,0.329 0.686,0.125 0.565,-0.024C0.444,-0.174 0.231,-0.179 0.077,-0.082C-0.096,0.027 -0.168,0.233 -0.2,0.43C-0.243,0.702 -0.24,0.974 -0.196,1.246C-0.187,1.302 -0.12,1.334 -0.071,1.319C-0.013,1.303 0.009,1.247 0,1.19" style="fill:rgb(136,192,115);fill-rule:nonzero;"/>
            </g>
            <g transform="matrix(1,0,0,1,356.301,792.208)">
                <path d="M0,-0.911C-0.109,-0.566 -0.108,-0.142 0.148,0.136C0.382,0.389 0.756,0.447 1.025,0.222C1.161,0.109 1.282,-0.055 1.358,-0.217C1.428,-0.364 1.456,-0.517 1.42,-0.678C1.354,-0.967 1.119,-1.201 0.851,-1.294C0.696,-1.348 0.511,-1.358 0.357,-1.295C0.196,-1.228 0.098,-1.084 0.01,-0.936C-0.059,-0.821 0.117,-0.716 0.186,-0.83C0.241,-0.923 0.3,-1.025 0.394,-1.081C0.487,-1.137 0.612,-1.137 0.715,-1.114C0.926,-1.069 1.118,-0.913 1.199,-0.705C1.298,-0.45 1.145,-0.211 0.982,-0.025C0.894,0.074 0.789,0.156 0.654,0.157C0.541,0.158 0.428,0.11 0.342,0.035C0.089,-0.182 0.103,-0.561 0.196,-0.855C0.237,-0.984 0.041,-1.039 0,-0.911" style="fill:rgb(136,192,115);fill-rule:nonzero;"/>
            </g>
            <g transform="matrix(-0.999178,0.0405479,0.0405479,0.999178,356.966,799.867)">
                <path d="M0.056,-3.649C0.167,-2.438 0.235,-1.222 0.259,-0.007C0.262,0.128 0.059,0.137 0.056,0.001C0.031,-1.214 -0.037,-2.429 -0.148,-3.641C-0.159,-3.776 0.044,-3.784 0.056,-3.649" style="fill:rgb(136,192,115);fill-rule:nonzero;"/>
            </g>
        </g>
    </g>
</svg>
