<?xml version="1.0" encoding="UTF-8" standalone="no"?>
<!DOCTYPE svg PUBLIC "-//W3C//DTD SVG 1.1//EN" "http://www.w3.org/Graphics/SVG/1.1/DTD/svg11.dtd">
<svg width="100%" height="100%" viewBox="0 0 912 61" version="1.1" xmlns="http://www.w3.org/2000/svg" xmlns:xlink="http://www.w3.org/1999/xlink" xml:space="preserve" xmlns:serif="http://www.serif.com/" style="fill-rule:evenodd;clip-rule:evenodd;stroke-linejoin:round;stroke-miterlimit:2;">
    <g transform="matrix(1,0,0,1,-2544,-2766)">
        <g transform="matrix(8.33333,0,0,8.33333,0,0)">
            <g transform="matrix(1,0,0,1,305.478,337.199)">
                <path d="M0,-5.22C2.429,-0.928 5.788,-0.233 8.855,-0.884C12.438,-1.644 15.909,-4.096 19.536,-4.047C21.283,-4.023 23.016,-3.5 24.741,-2.972C26.656,-2.387 28.571,-1.887 30.504,-1.651C34.33,-1.186 38.16,-1.597 41.948,-2.768C43.685,-3.305 45.42,-3.926 47.176,-4.151C48.937,-4.376 50.683,-4.069 52.422,-3.503C54.21,-2.921 55.98,-2.115 57.771,-1.568C59.616,-1.005 61.466,-0.841 63.329,-1.018C67.027,-1.37 70.688,-2.794 74.395,-2.86C78.067,-2.925 81.693,-1.395 85.363,-1.331C87.274,-1.298 89.101,-1.897 90.966,-2.702C92.606,-3.41 94.19,-3.745 95.861,-3.274C97.697,-2.756 99.487,-1.756 101.345,-1.57C103.134,-1.391 104.935,-1.768 106.671,-2.685C107.495,-3.12 108.301,-3.684 109.088,-4.349C109.186,-4.432 109.229,-4.103 109.132,-4.021C105.967,-1.349 102.521,-0.576 99.149,-1.729C97.312,-2.357 95.481,-3.383 93.604,-3.18C91.761,-2.983 89.989,-1.744 88.163,-1.289C84.44,-0.361 80.719,-1.822 77.01,-2.344C73.254,-2.873 69.563,-1.773 65.832,-1.053C63.995,-0.699 62.147,-0.472 60.304,-0.679C58.518,-0.881 56.757,-1.54 55.001,-2.215C53.167,-2.92 51.326,-3.645 49.459,-3.844C47.512,-4.052 45.577,-3.562 43.655,-2.965C39.954,-1.814 36.278,-0.979 32.528,-1.144C30.645,-1.227 28.764,-1.513 26.895,-2.003C25.03,-2.491 23.178,-3.202 21.303,-3.531C19.411,-3.862 17.548,-3.631 15.676,-2.996C13.883,-2.388 12.113,-1.528 10.318,-0.945C7.442,-0.012 4.319,0.141 1.643,-2.573C1.006,-3.218 0.422,-4.029 -0.116,-4.98C-0.197,-5.122 -0.08,-5.361 0,-5.22" style="fill:rgb(172,196,144);fill-rule:nonzero;"/>
            </g>
            <g transform="matrix(1,0,0,1,363.378,339.066)">
                <path d="M0,-3.112C1.094,-2.094 2.239,-1.026 3.65,-0.468C3.972,-0.341 4.358,-0.186 4.707,-0.171C5.152,-0.153 5.023,-0.852 4.909,-1.096C4.568,-1.823 3.751,-2.075 3.031,-2.254C2.06,-2.496 1.085,-2.728 0.111,-2.965C-0.101,-3.016 -0.011,-3.343 0.202,-3.292C1.21,-3.047 2.223,-2.814 3.228,-2.555C4.014,-2.354 4.854,-2.025 5.216,-1.238C5.366,-0.913 5.43,-0.495 5.262,-0.163C5.062,0.231 4.68,0.186 4.311,0.097C3.482,-0.101 2.714,-0.498 2.016,-0.979C1.205,-1.537 0.478,-2.203 -0.24,-2.872C-0.401,-3.021 -0.16,-3.261 0,-3.112" style="fill:rgb(172,196,144);fill-rule:nonzero;"/>
            </g>
            <g transform="matrix(1,0,0,1,362.045,332.659)">
                <path d="M0,2.206C1.004,0.996 2.38,-0.486 4.139,-0.044C4.474,0.04 4.873,0.209 4.905,0.603C4.932,0.939 4.725,1.284 4.515,1.53C4.073,2.046 3.381,2.297 2.735,2.434C1.715,2.65 0.64,2.692 -0.4,2.675C-0.618,2.671 -0.619,2.331 -0.4,2.335C0.433,2.349 1.265,2.307 2.09,2.2C2.688,2.122 3.308,1.989 3.826,1.668C4.066,1.519 4.278,1.325 4.422,1.08C4.499,0.945 4.608,0.742 4.559,0.582C4.503,0.402 4.24,0.335 4.081,0.292C3.377,0.103 2.618,0.324 2.017,0.704C1.309,1.149 0.769,1.81 0.24,2.446C0.101,2.615 -0.139,2.373 0,2.206" style="fill:rgb(172,196,144);fill-rule:nonzero;"/>
            </g>
        </g>
    </g>
</svg>
