<?xml version="1.0" encoding="UTF-8" standalone="no"?>
<!DOCTYPE svg PUBLIC "-//W3C//DTD SVG 1.1//EN" "http://www.w3.org/Graphics/SVG/1.1/DTD/svg11.dtd">
<svg width="100%" height="100%" viewBox="0 0 4586 1842" version="1.1" xmlns="http://www.w3.org/2000/svg" xmlns:xlink="http://www.w3.org/1999/xlink" xml:space="preserve" xmlns:serif="http://www.serif.com/" style="fill-rule:evenodd;clip-rule:evenodd;stroke-linejoin:round;stroke-miterlimit:2;">
    <g transform="matrix(1,0,0,1,-629,-9622)">
        <g transform="matrix(8.33333,0,0,8.33333,0,0)">
            <g opacity="0.54">
                <g transform="matrix(1,0,0,1,623.535,1190.03)">
                    <path d="M0,164.27C-0.05,164.92 -0.05,165.57 -0.05,166.23C-0.06,168.89 -0.19,171.54 -0.48,174.18C-0.54,174.67 -0.68,175.28 -0.43,175.64C0.06,176.35 -0.16,176.94 -0.33,177.69C-1.1,181.14 -3.11,182.29 -5.4,182.86C-7.93,183.51 -10.47,183.64 -13.05,183.28C-14.43,183.1 -15.83,183.21 -17.22,183.22C-19.72,183.23 -22.18,182.749 -24.65,182.38C-25.56,182.24 -26.47,182.07 -27.38,182.03C-29.83,181.92 -32.28,181.6 -34.73,181.69C-37.96,181.81 -41.16,181.29 -44.37,180.85C-44.48,180.83 -44.58,180.82 -44.69,180.81C-46.82,180.73 -48.94,180.61 -51.06,180.56C-51.9,180.54 -471.55,177.14 -472.39,177.18C-475.76,177.34 -479.12,176.89 -482.49,176.92C-485.35,176.94 -488.22,176.81 -491.07,177.02C-493.63,177.21 -496.19,177.17 -498.75,177.17C-499.63,177.17 -500.51,177.01 -501.38,176.99C-504.97,176.88 -508.55,177.15 -512.13,177.46C-513.93,177.63 -515.71,177.4 -517.49,177.06C-518.22,176.92 -518.95,176.71 -519.67,176.71C-522.44,176.71 -524.73,175.1 -526.96,173.03C-529.24,170.91 -529.96,167.85 -530.11,164.36C-530.23,161.499 -530.3,158.64 -530.4,155.78C-530.61,149.1 -530.67,142.42 -530.86,135.749C-531.04,129.61 -532.35,53.9 -532.37,47.76C-532.37,42.44 -532.46,39.13 -532.39,33.8C-532.32,28.88 -532.17,23.96 -531.95,19.05C-531.74,14.44 -531.47,9.84 -531.09,5.26C-530.68,0.47 -530.01,-4.26 -528.87,-8.84C-528.05,-12.11 -526.36,-14.08 -524.07,-15.19C-521.82,-16.3 -519.47,-16.78 -517.1,-17.07C-515.75,-17.22 -514.4,-17.1 -513.05,-17.1C-509.03,-17.12 -505,-17.19 -500.99,-17.44C-499.08,-17.56 -497.18,-17.59 -495.28,-17.66C-492.43,-17.77 -489.56,-17.78 -486.72,-18.04C-484.96,-18.19 -483.2,-18.14 -481.45,-18.31C-478.85,-18.55 -476.25,-18.37 -473.66,-18.62C-464.25,-19.51 -36.03,-15.65 -26.62,-15.501C-22.19,-15.43 -17.76,-15.44 -13.33,-15.32C-10.85,-15.26 -8.48,-14.43 -6.15,-13.37C-3.88,-12.34 -2.83,-9.93 -2.18,-7.02C-1.9,-5.8 -1.86,-4.54 -1.9,-3.29C-2.01,0.83 -1.88,4.96 -1.97,9.08C-2.07,13.3 -2.29,17.499 -2.38,21.72C-2.44,24.84 -2.44,27.96 -2.34,31.07C-2.22,34.88 -1.87,36.65 -1.75,40.46C-1.63,44.22 -1.57,47.99 -1.83,51.76C-1.86,52.21 -1.87,52.66 -1.88,53.12C-1.91,58.9 -0.66,134.27 -0.47,140.05C-0.3,144.86 -0.18,149.67 0.08,154.48C0.27,157.73 0.27,161.01 0,164.27M1.79,172.82C1.17,172.55 1.23,171.97 1.29,171.39C1.48,169.69 1.43,167.97 1.5,166.28C1.71,161.41 1.77,156.55 1.5,151.68C1.27,147.42 1.11,143.15 1.06,138.89C0.99,133.26 -0.34,58.04 -0.32,52.41C-0.32,52.07 -0.3,51.71 -0.28,51.36C-0.03,47.85 -0.08,44.33 -0.2,40.82C-0.39,35.86 -0.79,32.93 -0.85,27.96C-0.9,23.29 -0.82,18.62 -0.61,13.95C-0.44,10.44 -0.31,6.94 -0.59,3.42C-0.63,2.88 -0.65,2.31 -0.58,1.77C-0.27,-0.37 -0.39,-2.53 -0.37,-4.69C-0.35,-5.66 -0.47,-6.6 -0.67,-7.51C-1.42,-10.84 -2.58,-13.72 -5.12,-15.07C-7.63,-16.42 -10.22,-17.33 -12.9,-17.41C-17.88,-17.56 -22.86,-17.59 -27.84,-17.65C-36.77,-17.76 -464.52,-21.64 -473.44,-20.74C-475.7,-20.51 -477.98,-20.7 -480.25,-20.45C-482.32,-20.23 -484.41,-20.36 -486.5,-20.16C-489.27,-19.9 -492.06,-19.89 -494.84,-19.78C-496.81,-19.7 -498.79,-19.69 -500.76,-19.57C-503.87,-19.37 -506.98,-19.14 -510.09,-19.14C-511.92,-19.14 -513.75,-19.19 -515.58,-19.19C-518.75,-19.2 -521.84,-18.55 -524.83,-17.06C-526.89,-16.04 -528.57,-14.33 -529.64,-11.64C-530.18,-10.31 -530.55,-8.88 -530.84,-7.44C-531.88,-2.501 -532.47,2.54 -532.85,7.63C-533.15,11.52 -533.36,15.43 -533.51,19.34C-533.71,24.6 -533.87,29.86 -533.95,35.14C-534.03,40.01 -533.93,42.87 -533.93,47.74C-533.9,53.77 -532.67,129.39 -532.39,135.42C-532.21,139.12 -532.31,142.84 -532.19,146.56C-532.07,150.32 -531.94,154.09 -531.89,157.85C-531.86,160.86 -531.71,163.87 -531.44,166.86C-531.19,169.54 -530.37,171.88 -528.85,173.64C-525.78,177.21 -522.29,179.249 -518.2,179.03C-517.91,179.01 -517.61,179.04 -517.32,179.09C-515.4,179.41 -513.48,179.55 -511.53,179.46C-508.46,179.32 -505.4,178.98 -502.32,179.07C-500.96,179.12 -499.61,179.28 -498.26,179.31C-495.88,179.36 -493.51,179.29 -491.13,179.14C-487.39,178.9 -483.65,178.98 -479.92,179.09C-476.92,179.19 -55.12,182.98 -52.11,182.69C-49.56,182.44 -46.98,182.74 -44.44,183.01C-40.68,183.42 -36.93,183.93 -33.16,183.83C-31.1,183.77 -29.06,184.03 -27.01,184.21C-24.5,184.44 -22,185.19 -19.5,185.21C-15.4,185.26 -11.31,185.91 -7.21,185.35C-5.53,185.12 -3.88,184.72 -2.32,183.79C-1.4,183.23 -0.56,182.499 0.01,181.35C1.06,179.19 1.62,176.74 2.11,174.26C2.21,173.74 2.26,173.02 1.79,172.82" style="fill:rgb(136,192,115);fill-rule:nonzero;"/>
                </g>
            </g>
            <g transform="matrix(1,0,0,1,80.0342,1167.54)">
                <path d="M0,21.245C0.113,21.193 0.267,21.156 0.188,20.982C0.163,20.924 0.028,20.853 -0.011,20.874C-0.114,20.93 -0.255,21.025 -0.266,21.118C-0.285,21.294 -0.115,21.243 0,21.245M1.378,23.221C0.888,23.002 0.449,23.243 0.015,23.383C-0.843,23.658 -1.684,23.989 -2.542,24.265C-3.373,24.531 -4.021,24.378 -4.328,23.857C-4.701,23.224 -4.467,22.676 -4.046,22.162C-2.719,20.543 -1.308,18.994 0.266,17.622C7.887,10.977 15.469,4.287 23.323,-2.086C24.944,-3.402 26.516,-4.776 28.069,-6.176C30.038,-7.951 32.155,-9.56 34.031,-11.445C34.567,-11.984 35.222,-12.389 35.928,-12.689C36.708,-13.02 37.006,-12.929 37.487,-12.243C37.91,-11.641 38.106,-10.966 38.141,-10.238C38.2,-9.005 38.236,-7.771 38.322,-6.54C38.395,-5.504 38.503,-5.424 39.562,-5.601C40.309,-5.726 41.042,-5.932 41.788,-6.073C42.394,-6.189 43.007,-6.264 43.618,-6.351C44.383,-6.459 45.086,-6.32 45.434,-5.566C45.767,-4.844 45.333,-4.266 44.828,-3.814C40.3,0.236 36.259,4.793 31.609,8.728C25.886,13.573 20.351,18.64 14.731,23.606C11.35,26.595 7.883,29.478 4.254,32.16C3.341,32.835 2.365,33.441 1.271,33.803C-0.13,34.265 -1.105,33.573 -1.083,32.104C-1.07,31.198 -0.843,30.314 -0.567,29.455C-0.046,27.826 0.515,26.211 1.042,24.585C1.185,24.145 1.489,23.738 1.378,23.221" style="fill:rgb(228,239,213);fill-rule:nonzero;"/>
            </g>
        </g>
    </g>
</svg>
