<?xml version="1.0" encoding="UTF-8" standalone="no"?>
<!DOCTYPE svg PUBLIC "-//W3C//DTD SVG 1.1//EN" "http://www.w3.org/Graphics/SVG/1.1/DTD/svg11.dtd">
<svg width="100%" height="100%" viewBox="0 0 763 132" version="1.1" xmlns="http://www.w3.org/2000/svg" xmlns:xlink="http://www.w3.org/1999/xlink" xml:space="preserve" xmlns:serif="http://www.serif.com/" style="fill-rule:evenodd;clip-rule:evenodd;stroke-linejoin:round;stroke-miterlimit:2;">
    <g transform="matrix(1,0,0,1,-3069,-7212)">
        <g transform="matrix(8.33333,0,0,8.33333,0,0)">
            <g transform="matrix(1,0,0,1,376.337,878.181)">
                <path d="M0,-9.811C0.2,-9.772 0.453,-9.691 0.432,-9.896C0.425,-9.964 0.261,-10.123 0.19,-10.133C0.004,-10.162 -0.263,-10.185 -0.329,-10.114C-0.457,-9.979 -0.171,-9.898 0,-9.811M-7.984,-10.769C-8.008,-10.865 -8.084,-11.145 -7.936,-11.406C-7.74,-11.751 -7.238,-11.913 -6.617,-11.999C-3.714,-12.398 -0.723,-12.676 2.416,-12.685C17.613,-12.731 32.778,-12.844 48.175,-12.49C51.355,-12.416 54.492,-12.429 57.613,-12.477C61.573,-12.539 65.663,-12.35 69.541,-12.574C70.651,-12.637 71.863,-12.499 73.097,-12.237C74.457,-11.946 74.857,-11.651 75.203,-10.717C75.629,-9.566 75.144,-8.709 75.075,-8.54C74.327,-6.699 76.017,-3.447 78.266,-2.341C78.947,-2.006 79.333,-1.949 81.183,-1.236C82.397,-0.768 83.382,-0.135 83.488,0.759C83.59,1.615 82.614,1.787 81.6,1.799C72.512,1.913 63.881,2.813 54.674,2.741C43.342,2.652 32.169,2.888 20.926,2.979C14.161,3.033 7.325,2.937 0.356,2.549C-1.398,2.452 -3.207,2.252 -5.059,1.756C-6.27,1.432 -7.146,0.935 -7.601,0.363C-8.172,-0.355 -7.84,-1.002 -7.67,-1.407C-7.67,-1.407 -6.419,-4.39 -7.984,-10.769" style="fill:rgb(228,239,213);fill-rule:nonzero;"/>
            </g>
        </g>
    </g>
</svg>
