<?xml version="1.0" encoding="UTF-8" standalone="no"?>
<!DOCTYPE svg PUBLIC "-//W3C//DTD SVG 1.1//EN" "http://www.w3.org/Graphics/SVG/1.1/DTD/svg11.dtd">
<svg width="100%" height="100%" viewBox="0 0 1279 263" version="1.1" xmlns="http://www.w3.org/2000/svg" xmlns:xlink="http://www.w3.org/1999/xlink" xml:space="preserve" xmlns:serif="http://www.serif.com/" style="fill-rule:evenodd;clip-rule:evenodd;stroke-linejoin:round;stroke-miterlimit:2;">
    <g id="Artboard1" transform="matrix(1,0,0,1,-62,-212)">
        <rect x="62" y="212" width="1279" height="263" style="fill:none;"/>
        <g transform="matrix(1,0,0,1,71.47,377.09)">
            <g>
                <path d="M44.652,69.981C39.294,69.981 34.098,68.683 28.902,65.76C15.425,58.128 9.905,42.379 9.905,23.868C9.905,16.886 10.716,9.58 12.178,2.273C13.964,6.82 15.912,11.528 18.51,16.399C18.835,17.049 19.484,17.374 20.459,17.374C21.595,17.374 22.407,16.562 22.407,15.263C22.407,14.938 22.407,14.613 22.245,14.289C18.835,7.469 16.075,0.974 13.964,-5.521C16.237,-14.289 19.16,-22.732 23.057,-30.85C23.381,-30.688 23.706,-30.688 24.193,-30.688C25.005,-30.688 25.654,-31.013 26.142,-31.825C28.577,-36.696 29.876,-41.891 29.876,-44.814C29.876,-47.737 28.902,-49.198 27.116,-49.198L26.304,-49.036C25.167,-48.711 24.68,-47.899 23.381,-46.6C18.023,-36.696 13.801,-27.278 10.716,-18.51C9.093,-25.979 8.281,-33.448 8.281,-40.593C8.281,-97.26 53.582,-139.963 85.407,-139.963C102.943,-139.963 117.231,-127.298 119.991,-95.149C120.479,-90.602 120.641,-86.056 120.641,-81.347C120.641,-61.701 117.556,-41.891 115.445,-28.902C112.685,-12.015 108.463,2.76 103.43,15.1C90.765,1.624 77.775,-7.794 68.52,-7.794C66.734,-7.794 65.273,-7.469 63.649,-6.82C63.487,-6.82 63.324,-6.82 63.324,-6.657C61.538,-5.521 61.376,-4.871 61.051,-3.572C61.051,-1.624 62.837,-0.974 65.11,-0.812C66.572,-0.812 68.52,-1.137 70.306,-1.948C79.561,0.649 90.115,9.905 100.832,21.108C86.543,52.283 64.136,69.981 44.652,69.981ZM43.678,74.365C64.136,74.365 87.68,58.778 104.079,24.518C114.308,35.884 125.999,50.497 134.442,60.726C134.767,61.051 135.417,61.376 136.066,61.376C137.365,61.376 138.339,60.564 138.339,59.265C138.339,58.778 138.177,58.291 138.015,57.966C130.87,47.899 119.18,32.149 106.839,18.51C112.198,5.521 116.582,-10.067 119.829,-28.252C121.778,-41.242 125.025,-61.863 125.025,-81.834C125.025,-114.796 116.095,-144.185 86.056,-144.185C50.822,-144.185 4.059,-99.858 4.059,-40.43C4.059,-30.85 5.358,-20.783 8.119,-10.716C4.222,1.624 2.598,12.827 2.598,22.732C2.598,55.855 21.108,74.365 43.678,74.365Z" style="fill:rgb(27,84,42);fill-rule:nonzero;"/>
                <path d="M215.14,6.17C221.797,6.17 228.942,4.384 236.248,0.649C247.29,-5.033 258.98,-14.776 269.697,-27.765C270.021,-28.252 270.184,-28.739 270.184,-29.227C270.184,-29.876 270.021,-30.363 269.372,-30.85C269.047,-31.337 268.56,-31.5 268.073,-31.5C267.423,-31.5 266.774,-31.175 266.449,-30.688C256.057,-18.023 244.854,-8.768 234.3,-3.247C227.805,0.162 221.31,1.786 215.465,1.786L212.867,1.786C201.826,0.649 195.169,-13.964 191.272,-22.407C189.161,-26.953 187.7,-29.227 185.914,-29.227C183.965,-29.227 181.692,-26.629 177.795,-21.595C171.138,-12.665 159.934,2.111 154.252,2.111L153.602,2.111C152.628,1.461 152.141,0.487 151.816,-0.812C150.842,-3.247 150.517,-6.657 150.517,-10.554C150.517,-14.776 150.842,-19.484 151.654,-24.193C152.303,-29.064 153.277,-33.935 154.414,-37.345C156.525,-39.781 157.337,-42.054 157.337,-44.165L157.337,-45.788C157.012,-46.6 156.849,-47.574 156.2,-48.224C155.388,-49.036 154.576,-49.685 153.764,-49.685L152.953,-49.685C151.654,-49.685 150.03,-49.036 148.893,-47.574L148.569,-46.925C144.185,-32.799 142.561,-22.569 142.561,-14.776L142.561,-13.477C142.723,-1.299 147.432,3.897 150.842,5.521C151.166,5.845 151.491,6.008 151.816,6.008C151.978,6.17 152.141,6.17 152.303,6.17L153.764,6.17C162.208,6.17 173.898,-9.417 181.205,-18.997C182.504,-20.459 183.153,-21.108 183.803,-22.082C185.914,-14.776 188.999,-9.905 192.408,-5.521C197.604,1.624 204.424,5.358 211.893,6.17L215.14,6.17Z" style="fill:rgb(27,84,42);fill-rule:nonzero;"/>
                <path d="M416.804,-31.5C393.91,-12.827 381.732,-6.982 374.912,-6.982C371.827,-6.982 369.879,-8.119 368.58,-10.067C366.631,-12.178 365.657,-15.263 364.683,-18.348C363.384,-22.569 362.085,-26.466 358.675,-28.252C357.539,-28.902 356.402,-29.227 355.103,-29.227C351.856,-29.227 348.284,-27.116 344.712,-24.031C341.789,-21.27 338.704,-17.698 335.781,-13.801C336.106,-15.75 336.268,-17.536 336.755,-19.484C337.405,-23.706 339.353,-32.799 339.353,-41.242C339.353,-49.198 337.405,-56.342 330.585,-56.83L330.423,-56.83C324.74,-56.83 314.511,-43.353 303.957,-28.902C293.078,-13.801 281.225,2.436 273.918,5.358L273.756,5.196C270.833,3.41 270.021,-2.273 270.021,-8.768C270.021,-16.399 271.158,-25.33 272.132,-31.662L272.457,-33.448L272.457,-33.773C272.457,-34.098 272.457,-34.422 272.132,-34.747C271.807,-35.559 271.32,-36.046 270.833,-36.371C270.184,-36.696 269.534,-37.02 268.885,-37.02C268.235,-37.02 267.748,-36.696 267.261,-36.533C266.449,-36.046 265.8,-35.559 265.15,-34.747C265.15,-34.585 264.988,-34.26 264.988,-34.098L264.663,-33.773L264.663,-33.611C263.364,-23.706 262.715,-15.75 262.715,-9.58C262.715,-5.358 263.039,-1.948 263.527,0.812C264.988,7.469 267.748,10.067 271.645,10.067C272.457,10.067 273.106,10.067 273.918,9.905C282.686,7.794 295.513,-10.067 307.366,-26.304C317.271,-39.943 326.364,-52.446 329.611,-52.446L329.773,-52.446C330.423,-52.283 330.585,-50.984 330.585,-48.873C330.585,-40.105 326.526,-17.861 326.526,-6.17C326.526,-2.436 327.013,0.325 328.15,0.812C328.475,0.974 328.962,1.137 329.611,1.137C330.585,1.137 331.56,0.325 332.696,-1.299C336.431,-7.956 342.114,-15.912 347.634,-20.783C350.394,-23.219 352.992,-24.843 354.941,-24.843C355.59,-24.843 356.077,-24.68 356.565,-24.518C358.351,-23.544 359.487,-20.296 360.624,-16.886C361.76,-13.477 362.735,-10.067 364.845,-7.469C366.956,-4.709 369.879,-2.923 374.425,-2.923C382.706,-2.923 396.183,-9.255 419.402,-28.09C419.889,-28.415 420.376,-29.064 420.376,-29.876C420.376,-30.201 420.214,-30.688 419.889,-31.013C419.402,-31.5 418.915,-31.987 418.265,-31.987C417.778,-31.987 417.291,-31.662 416.804,-31.5ZM270.833,-65.273C270.346,-64.623 269.859,-64.136 269.859,-63.974C268.722,-63 268.722,-62.837 268.235,-60.402L268.235,-60.077C268.235,-58.94 268.722,-58.128 269.859,-57.966L270.184,-57.966C271.32,-57.966 272.132,-58.453 272.457,-59.427C272.782,-60.889 272.782,-61.051 273.106,-61.376C273.269,-61.538 273.756,-62.025 274.405,-63C274.405,-63.324 274.73,-63.811 274.73,-64.136C274.73,-64.948 274.405,-65.597 273.756,-65.922C273.431,-66.247 272.944,-66.409 272.457,-66.409C271.807,-66.409 271.158,-65.922 270.833,-65.273Z" style="fill:rgb(27,84,42);fill-rule:nonzero;"/>
                <path d="M426.708,30.85C428.819,30.85 430.605,29.876 430.605,27.765C430.605,26.791 429.631,25.654 428.494,25.654C425.897,24.193 424.598,13.314 424.435,11.366C423.623,3.572 422.974,-6.82 422.974,-18.673L423.136,-27.441C423.623,-49.036 425.247,-74.528 428.007,-99.858L503.996,-100.507C504.971,-100.507 506.107,-101.481 506.107,-102.455L506.107,-102.618C506.107,-103.754 505.133,-104.891 503.834,-104.891L428.332,-104.242L429.469,-113.984C430.605,-114.146 431.417,-115.12 431.417,-116.095C431.417,-120.479 431.417,-123.726 431.092,-125.674C430.443,-128.597 429.306,-129.571 428.17,-129.571C426.546,-129.571 424.922,-127.785 424.598,-126.324C423.299,-119.504 422,-112.035 420.863,-104.079L365.333,-103.592L365.333,-103.754C365.333,-104.891 364.521,-105.703 363.546,-106.028C361.923,-106.19 360.299,-106.19 358.675,-106.19C354.778,-106.19 351.369,-105.703 349.42,-104.891C348.284,-104.566 347.472,-103.917 346.985,-103.43C346.335,-102.618 346.173,-102.131 346.173,-101.481C346.173,-100.507 346.822,-99.858 348.121,-99.37C348.771,-99.046 349.907,-99.046 351.531,-99.046L353.804,-99.046L420.376,-99.695C417.616,-79.561 415.992,-56.83 415.505,-36.046L415.505,-27.441C415.505,-2.923 417.616,18.185 422.162,28.902C423.299,30.363 424.922,30.85 426.708,30.85Z" style="fill:rgb(27,84,42);fill-rule:nonzero;"/>
            </g>
            <g transform="matrix(1,0,0,1,487.26,0)">
                <path d="M4.222,5.521C6.982,5.521 10.067,4.871 13.314,3.897C22.407,1.624 31.987,-4.222 40.755,-11.366L40.917,-11.691C46.6,-15.912 52.77,-21.433 59.103,-27.765C59.427,-28.252 59.752,-28.902 59.752,-29.389C59.752,-30.526 58.778,-31.5 57.479,-31.5C56.992,-31.5 56.342,-31.5 56.018,-30.85C49.685,-24.518 43.84,-19.16 38.157,-14.938C38.157,-14.613 38.157,-14.776 37.995,-14.613C36.533,-13.477 24.518,-6.17 23.706,-6.17C18.023,-3.085 10.879,-0.812 5.196,-0.812C-0.162,-0.812 -4.222,-2.923 -4.222,-8.768C-4.222,-10.879 -3.572,-13.639 -2.273,-16.886C9.417,-19.972 14.126,-27.278 14.126,-31.662C14.126,-35.397 12.178,-37.183 8.443,-37.183C6.657,-37.183 3.41,-35.072 0.487,-32.149C-3.41,-28.09 -6.332,-23.868 -8.281,-19.972L-10.392,-19.809C-11.366,-19.647 -12.34,-18.673 -12.34,-17.698C-12.34,-16.399 -11.366,-15.425 -10.067,-15.425C-11.204,-12.665 -11.528,-10.229 -11.528,-8.119C-11.366,-3.41 -10.229,-0.487 -6.982,2.273L-6.82,2.273C-4.871,4.222 -0.649,5.521 3.41,5.521L4.222,5.521ZM0,-22.082C3.41,-28.252 6.17,-31.987 9.255,-32.799C9.58,-32.799 9.742,-32.636 9.742,-32.312L9.905,-31.5C9.905,-28.902 6.495,-24.68 0,-22.082Z" style="fill:rgb(27,84,42);fill-rule:nonzero;"/>
            </g>
            <g transform="matrix(1,0,0,1,548.47,0)">
                <path d="M-0.487,15.1C1.624,15.1 4.222,12.99 4.871,9.58C5.521,6.982 6.17,3.41 7.469,-2.436C8.119,-5.521 9.255,-8.281 10.067,-11.691C10.879,-14.776 12.665,-17.211 13.964,-19.809C16.724,-24.031 17.861,-25.005 19.484,-25.005L19.809,-25.005C21.595,-25.005 23.057,-24.356 25.492,-23.381C33.448,-19.484 43.19,-16.724 52.77,-16.724C62.188,-16.724 71.605,-19.484 78.749,-26.142C79.237,-26.466 79.561,-27.278 79.561,-27.765C79.561,-28.252 79.237,-28.902 78.912,-29.227C78.587,-29.551 78.1,-29.876 77.45,-29.876C76.963,-29.876 76.314,-29.551 75.827,-29.227C73.716,-27.278 69.332,-25.005 66.572,-24.356C62.188,-23.381 58.128,-22.894 54.232,-22.894C45.139,-22.894 36.696,-25.492 28.252,-29.876C24.518,-31.5 21.595,-32.636 18.997,-32.636C17.211,-32.636 15.425,-32.149 13.801,-30.85C9.58,-28.902 6.657,-20.459 5.196,-16.399C5.845,-22.082 6.17,-26.629 6.332,-31.987C7.469,-31.013 8.119,-30.85 8.768,-30.85C9.905,-30.85 10.392,-31.987 10.392,-33.448C10.392,-37.183 8.119,-42.866 4.384,-43.19C3.897,-43.19 3.41,-43.028 2.923,-42.866C1.948,-42.379 1.137,-41.729 0.812,-40.755C-1.299,-35.072 -3.572,-10.716 -4.059,2.923C-4.222,5.845 -4.222,8.119 -4.222,9.742C-4.222,13.314 -2.273,15.1 -0.487,15.1Z" style="fill:rgb(27,84,42);fill-rule:nonzero;"/>
                <path d="M169.839,61.538C186.401,61.538 205.236,56.83 222.934,48.062C235.112,41.891 246.965,31.987 258.168,19.484C269.697,6.495 280.575,-9.417 290.318,-27.278C290.642,-27.603 290.805,-27.928 290.805,-28.252C290.805,-29.064 290.318,-29.876 289.668,-30.201C289.343,-30.363 289.019,-30.363 288.531,-30.363C287.72,-30.363 287.07,-30.038 286.745,-29.389C277.003,-11.691 266.287,3.897 254.921,16.724C244.204,28.902 232.676,38.157 220.986,44.002C207.184,51.147 187.7,56.992 169.19,56.992C152.79,56.992 137.527,52.283 127.623,39.943C121.778,32.474 119.504,23.057 119.504,12.665L119.504,6.17C123.726,-36.696 187.537,-126.486 227.967,-126.486C229.916,-126.486 231.864,-126.324 233.65,-125.837C239.496,-124.375 244.204,-120.641 247.29,-113.984C249.725,-108.788 251.186,-101.644 251.186,-92.226C251.186,-84.92 250.375,-76.639 248.426,-66.896C248.101,-66.734 247.939,-66.409 247.777,-65.922C246.802,-63.974 246.64,-62.025 246.64,-60.889L246.64,-60.077C246.64,-59.427 246.802,-58.94 247.127,-58.778C247.614,-57.966 248.264,-57.479 248.913,-57.479C249.4,-57.479 249.887,-57.641 250.212,-57.966C250.699,-58.291 251.186,-58.778 251.349,-59.59L251.349,-60.077C254.109,-72.417 255.408,-83.133 255.408,-92.064C255.408,-102.131 253.947,-110.087 251.024,-115.932C247.452,-123.726 241.607,-128.272 234.462,-130.058C232.514,-130.545 230.241,-130.708 227.967,-130.708L224.882,-130.708C220.336,-130.221 215.627,-129.084 210.594,-127.136C189.161,-119.18 163.831,-97.584 144.509,-70.144C120.966,-36.858 111.386,-10.067 111.386,10.716L111.386,12.827C111.711,25.979 116.257,36.533 123.401,44.489C130.708,52.283 140.775,57.479 152.303,59.915C157.337,60.889 162.857,61.538 168.378,61.538L169.839,61.538Z" style="fill:rgb(27,84,42);fill-rule:nonzero;"/>
                <path d="M292.266,5.521C295.026,5.521 298.111,4.871 301.359,3.897C310.451,1.624 320.031,-4.222 328.799,-11.366L328.962,-11.691C334.645,-15.912 340.815,-21.433 347.147,-27.765C347.472,-28.252 347.797,-28.902 347.797,-29.389C347.797,-30.526 346.822,-31.5 345.523,-31.5C345.036,-31.5 344.387,-31.5 344.062,-30.85C337.73,-24.518 331.884,-19.16 326.201,-14.938C326.201,-14.613 326.201,-14.776 326.039,-14.613C324.578,-13.477 312.562,-6.17 311.75,-6.17C306.067,-3.085 298.923,-0.812 293.24,-0.812C287.882,-0.812 283.823,-2.923 283.823,-8.768C283.823,-10.879 284.472,-13.639 285.771,-16.886C297.462,-19.972 302.171,-27.278 302.171,-31.662C302.171,-35.397 300.222,-37.183 296.488,-37.183C294.702,-37.183 291.454,-35.072 288.531,-32.149C284.635,-28.09 281.712,-23.868 279.764,-19.972L277.653,-19.809C276.678,-19.647 275.704,-18.673 275.704,-17.698C275.704,-16.399 276.678,-15.425 277.977,-15.425C276.841,-12.665 276.516,-10.229 276.516,-8.119C276.678,-3.41 277.815,-0.487 281.062,2.273L281.225,2.273C283.173,4.222 287.395,5.521 291.454,5.521L292.266,5.521ZM288.044,-22.082C291.454,-28.252 294.214,-31.987 297.299,-32.799C297.624,-32.799 297.787,-32.636 297.787,-32.312L297.949,-31.5C297.949,-28.902 294.539,-24.68 288.044,-22.082Z" style="fill:rgb(27,84,42);fill-rule:nonzero;"/>
                <path d="M471.198,65.597C473.471,65.597 475.582,64.136 475.582,62.675C475.582,61.538 474.77,60.564 473.471,60.564C470.224,60.077 467.788,37.345 467.788,7.794C467.788,-22.894 470.386,-61.538 473.958,-88.005L558.878,-89.466C560.014,-89.466 561.151,-90.602 561.151,-91.739C561.151,-92.876 560.014,-93.85 558.878,-93.85L474.445,-92.226C475.257,-97.909 476.069,-103.105 477.043,-107.814L477.043,-108.138C477.043,-109.924 474.608,-111.223 472.821,-111.223C471.847,-111.223 471.035,-110.899 470.873,-110.087C467.463,-103.592 464.216,-97.747 461.131,-91.901L406.737,-90.927C406.737,-91.252 407.062,-91.252 407.062,-91.739C407.062,-92.713 406.087,-93.85 405.113,-93.85C403.327,-94.337 401.379,-94.337 399.755,-94.337C393.585,-94.337 387.902,-92.713 386.765,-91.09C386.278,-90.44 386.116,-89.791 386.116,-89.141C386.116,-87.517 387.74,-86.218 389.201,-86.218L458.858,-87.517C448.953,-69.332 415.342,-6.495 393.098,-0.487C392.448,-0.325 391.636,-0.325 390.987,-0.325C379.296,-0.325 375.075,-26.791 364.683,-26.791C359.162,-26.791 352.181,-18.348 346.822,-6.657L349.258,-35.072C349.258,-37.183 347.309,-37.67 345.199,-37.67C343.737,-37.67 342.438,-36.858 342.438,-35.397C342.438,-35.397 340.003,-12.827 339.678,1.624L340.003,5.196C340.165,8.119 340.815,9.58 342.114,9.58C343.088,9.58 344.224,9.093 345.686,6.495C349.42,-4.871 358.188,-19.809 363.384,-22.082L364.034,-22.082C368.418,-22.082 373.613,-1.786 383.193,2.923C384.817,3.897 386.928,4.384 389.201,4.384C390.987,4.384 392.448,4.059 394.234,3.572C417.129,-2.598 453.662,-69.007 463.729,-87.68L466.651,-87.68C461.78,-56.992 459.994,-31.013 459.507,4.222C459.507,28.252 461.456,49.036 465.677,60.889C466.814,64.299 469.087,65.597 471.198,65.597ZM467.301,-92.064L466.164,-92.064C466.651,-93.2 467.138,-94.175 467.788,-95.149L467.301,-92.064Z" style="fill:rgb(27,84,42);fill-rule:nonzero;"/>
                <path d="M510.329,15.1C512.44,15.1 515.038,12.99 515.687,9.58C516.337,6.982 516.986,3.41 518.285,-2.436C518.935,-5.521 520.071,-8.281 520.883,-11.691C521.695,-14.776 523.481,-17.211 524.78,-19.809C527.54,-24.031 528.677,-25.005 530.3,-25.005L530.625,-25.005C532.411,-25.005 533.873,-24.356 536.308,-23.381C544.264,-19.484 554.006,-16.724 563.586,-16.724C573.004,-16.724 582.421,-19.484 589.565,-26.142C590.053,-26.466 590.377,-27.278 590.377,-27.765C590.377,-28.252 590.053,-28.902 589.728,-29.227C589.403,-29.551 588.916,-29.876 588.267,-29.876C587.779,-29.876 587.13,-29.551 586.643,-29.227C584.532,-27.278 580.148,-25.005 577.388,-24.356C573.004,-23.381 568.944,-22.894 565.048,-22.894C555.955,-22.894 547.512,-25.492 539.068,-29.876C535.334,-31.5 532.411,-32.636 529.813,-32.636C528.027,-32.636 526.241,-32.149 524.617,-30.85C520.396,-28.902 517.473,-20.459 516.012,-16.399C516.661,-22.082 516.986,-26.629 517.148,-31.987C518.285,-31.013 518.935,-30.85 519.584,-30.85C520.721,-30.85 521.208,-31.987 521.208,-33.448C521.208,-37.183 518.935,-42.866 515.2,-43.19C514.713,-43.19 514.226,-43.028 513.739,-42.866C512.764,-42.379 511.953,-41.729 511.628,-40.755C509.517,-35.072 507.244,-10.716 506.757,2.923C506.594,5.845 506.594,8.119 506.594,9.742C506.594,13.314 508.543,15.1 510.329,15.1Z" style="fill:rgb(27,84,42);fill-rule:nonzero;"/>
                <path d="M697.379,44.489C699.652,44.489 701.438,43.515 701.601,41.567C701.601,40.593 700.627,39.618 699.49,39.618C697.379,39.294 695.755,27.278 695.755,11.366C695.755,-18.835 701.276,-69.007 708.745,-110.736L708.745,-111.386C708.745,-113.334 706.959,-114.633 705.173,-114.633C704.036,-114.633 703.062,-113.984 702.575,-112.36C701.926,-110.087 701.438,-107.814 700.951,-105.216C695.106,-82.646 661.008,-21.433 635.841,-5.521L635.679,-5.521C631.782,-3.247 628.697,-1.786 625.612,-1.786C623.501,-1.786 621.39,-2.598 619.766,-4.059L619.442,-4.059C615.545,-7.469 612.622,-14.613 610.998,-26.629C610.836,-27.603 610.024,-28.415 609.05,-28.415C608.4,-28.415 607.589,-28.252 607.101,-27.603C597.034,-15.912 590.215,-10.067 585.831,-8.119C585.831,-9.255 585.993,-10.554 586.318,-12.015C587.942,-20.459 597.684,-33.611 605.153,-33.611L606.614,-33.448C608.4,-33.448 609.212,-34.585 609.212,-35.721C609.212,-36.858 608.4,-38.157 607.101,-38.806C605.315,-39.781 603.529,-39.943 601.743,-39.943C588.754,-39.943 577.55,-19.972 577.55,-9.58C577.55,-5.521 579.174,-2.923 582.746,-2.923C586.968,-2.923 593.462,-6.332 605.965,-19.972C606.29,-15.588 607.589,-9.905 610.511,-5.358L610.674,-5.196C613.596,-0.487 618.143,2.923 623.988,2.923C628.21,2.923 632.756,1.624 638.114,-1.786C658.41,-14.776 683.415,-54.881 696.243,-81.834C690.884,-52.283 687.962,-19.484 687.962,6.495C687.962,29.064 689.585,44.489 697.379,44.489Z" style="fill:rgb(27,84,42);fill-rule:nonzero;"/>
            </g>
        </g>
    </g>
</svg>
