<?xml version="1.0" encoding="UTF-8" standalone="no"?>
<!DOCTYPE svg PUBLIC "-//W3C//DTD SVG 1.1//EN" "http://www.w3.org/Graphics/SVG/1.1/DTD/svg11.dtd">
<svg width="100%" height="100%" viewBox="0 0 481 104" version="1.1" xmlns="http://www.w3.org/2000/svg" xmlns:xlink="http://www.w3.org/1999/xlink" xml:space="preserve" xmlns:serif="http://www.serif.com/" style="fill-rule:evenodd;clip-rule:evenodd;stroke-linejoin:round;stroke-miterlimit:2;">
    <g transform="matrix(1,0,0,1,-1915,-535)">
        <g transform="matrix(4.16667,0,0,4.16667,0,0)">
            <g transform="matrix(1,0,0,1,461.148,130.361)">
                <path d="M0,19.716C-0.864,17.519 -1.404,12.766 -1.404,4.555L-1.404,4.267C-1.404,4.105 -1.26,3.925 -1.08,3.925C-1.044,3.925 -1.008,3.925 -0.972,3.961C-0.918,3.979 -0.882,3.997 -0.864,4.051C-0.72,4.195 -0.576,4.555 -0.522,4.969C-0.486,5.222 -0.45,5.528 -0.45,5.78C-0.45,5.942 -0.468,6.068 -0.504,6.176C-0.522,6.284 -0.576,6.392 -0.648,6.446C-0.504,9.633 -0.324,12.928 0.018,15.575C0.414,18.492 0.937,20.58 1.729,20.76L1.747,20.76C2.305,20.598 2.935,19.842 3.601,18.654C5.708,14.981 8.121,7.202 10.101,-1.368C10.155,-1.494 10.245,-1.548 10.353,-1.548L10.389,-1.548C10.497,-1.513 10.587,-1.422 10.587,-1.314L10.569,-1.26C8.571,7.346 6.14,15.178 4.033,18.888C3.295,20.184 2.557,21.012 1.891,21.211C1.783,21.264 1.657,21.264 1.549,21.264C0.937,21.264 0.414,20.778 0,19.716" style="fill:rgb(25,84,42);fill-rule:nonzero;"/>
            </g>
            <g transform="matrix(1,0,0,1,481.977,138.085)">
                <path d="M0,6.194C-0.828,6.104 -1.584,5.69 -2.161,4.898C-2.539,4.412 -2.881,3.871 -3.115,3.061C-3.187,3.169 -3.259,3.241 -3.403,3.403C-4.213,4.465 -5.51,6.194 -6.446,6.194L-6.608,6.194C-6.626,6.194 -6.644,6.194 -6.662,6.176C-6.698,6.176 -6.734,6.158 -6.77,6.122C-7.148,5.942 -7.67,5.366 -7.688,4.015L-7.688,3.871C-7.688,3.007 -7.508,1.873 -7.022,0.306L-6.986,0.235C-6.86,0.072 -6.68,0 -6.536,0L-6.446,0C-6.356,0 -6.266,0.072 -6.176,0.162C-6.104,0.235 -6.086,0.342 -6.05,0.432L-6.05,0.612C-6.05,0.846 -6.14,1.099 -6.374,1.369C-6.5,1.747 -6.608,2.287 -6.68,2.827C-6.77,3.349 -6.806,3.871 -6.806,4.34C-6.806,4.772 -6.77,5.15 -6.662,5.42C-6.626,5.564 -6.572,5.672 -6.464,5.744L-6.392,5.744C-5.762,5.744 -4.52,4.106 -3.781,3.115C-3.349,2.557 -3.097,2.269 -2.881,2.269C-2.881,2.269 -2.845,2.269 -2.827,2.287C-1.801,2.089 -1.08,1.297 -1.603,0.576C-1.765,0.361 -1.584,0.072 -1.314,0.126C-1.098,0.235 -0.972,0.523 -0.918,0.738C-0.738,1.711 -1.548,2.449 -2.449,2.719C-2.395,2.809 -2.341,2.917 -2.287,3.025C-1.854,3.962 -1.116,5.582 0.108,5.708L0.396,5.708C1.044,5.708 1.765,5.528 2.485,5.15C3.655,4.538 4.897,3.511 6.05,2.107C6.086,2.053 6.158,2.017 6.23,2.017C6.284,2.017 6.338,2.035 6.374,2.089C6.446,2.143 6.464,2.197 6.464,2.269C6.464,2.323 6.446,2.377 6.41,2.431C5.222,3.871 3.925,4.952 2.701,5.582C1.891,5.996 1.098,6.194 0.36,6.194L0,6.194Z" style="fill:rgb(25,84,42);fill-rule:nonzero;"/>
            </g>
            <g transform="matrix(1,0,0,1,490.686,140.768)">
                <path d="M0,1.062C0,0.198 -0.252,-0.594 -0.864,-0.72C-1.296,-0.198 -1.692,1.062 -1.692,2.161C-1.692,2.593 -1.62,2.971 -1.458,3.187C-1.314,3.295 -1.17,3.331 -1.062,3.331C-0.432,3.331 0,2.143 0,1.062M-2.521,1.8C-2.521,0.414 -1.836,-1.188 -0.972,-1.188C-0.576,-1.188 -0.288,-0.955 -0.054,-0.612C0.9,-0.792 1.584,-1.531 1.099,-2.197C0.937,-2.395 1.099,-2.683 1.369,-2.611C1.549,-2.503 1.657,-2.233 1.71,-2.035C1.909,-1.081 1.026,-0.415 0.144,-0.234L0.144,-0.198C0.36,0.288 0.378,0.648 0.414,1.242C0.414,2.611 -0.252,3.745 -1.296,3.745C-2.232,3.745 -2.502,2.827 -2.521,1.8" style="fill:rgb(25,84,42);fill-rule:nonzero;"/>
            </g>
            <g transform="matrix(1,0,0,1,493.674,139.904)">
                <path d="M0,4.267L-0.036,3.871L-0.018,3.511C0.018,2.142 0.234,-0.234 0.234,-0.234L0.234,-0.27C0.271,-0.415 0.396,-0.486 0.559,-0.486L0.648,-0.486C0.667,-0.486 0.685,-0.486 0.72,-0.468C0.864,-0.432 0.973,-0.342 0.973,-0.198L0.738,2.971C0.829,2.754 0.937,2.575 1.026,2.376C1.314,1.908 1.603,1.476 1.891,1.188C2.305,0.738 2.647,0.558 2.917,0.558C4.124,0.558 4.268,3.907 6.194,3.907L6.374,3.889C7.562,3.727 9.327,2.79 12.082,0.324C12.118,0.27 12.172,0.27 12.226,0.27C12.298,0.27 12.37,0.288 12.406,0.342C12.46,0.378 12.478,0.432 12.478,0.486C12.478,0.558 12.442,0.63 12.388,0.666C9.615,3.151 7.725,4.177 6.446,4.375L6.338,4.375C6.194,4.393 6.068,4.411 5.942,4.411C5.168,4.411 4.627,4.069 4.213,3.619C3.835,3.187 3.583,2.646 3.349,2.178C3.169,1.746 2.971,1.368 2.791,1.26C2.755,1.26 2.755,1.242 2.755,1.242L2.683,1.242C2.539,1.242 2.395,1.35 2.233,1.512C1.963,1.782 1.711,2.161 1.458,2.611C1.135,3.205 0.847,3.853 0.63,4.375L0.612,4.411L0.594,4.465C0.559,4.537 0.522,4.591 0.468,4.645C0.378,4.717 0.306,4.753 0.234,4.753C0.09,4.753 0.018,4.591 0,4.267" style="fill:rgb(25,84,42);fill-rule:nonzero;"/>
            </g>
            <g transform="matrix(1,0,0,1,510.793,143.936)">
                <path d="M0,3.44C0.126,2.576 0.18,1.693 0.18,0.847C0.18,0.235 0.162,-0.359 0.09,-0.881C-4.339,2.197 -5.816,4.934 -5.816,6.681C-5.816,8.031 -4.987,8.805 -3.943,8.805C-2.467,8.805 -0.558,7.257 0,3.44M-4.826,9.111C-5.744,8.77 -6.392,7.923 -6.392,6.717C-6.392,6.411 -6.338,6.069 -6.248,5.709C-5.78,3.872 -4.015,1.387 0.036,-1.421C-0.054,-2.232 -0.198,-2.808 -0.468,-3.24C-0.864,-2.826 -2.971,-1.313 -4.123,-1.313C-4.573,-1.313 -4.879,-1.548 -4.879,-2.16L-4.879,-2.286L-4.861,-2.322C-4.826,-2.772 -4.609,-3.33 -4.231,-3.871C-3.511,-4.878 -2.269,-5.833 -0.738,-5.833C-0.504,-5.833 -0.27,-5.797 -0.018,-5.761C0.252,-5.707 0.378,-5.509 0.378,-5.293C0.378,-4.987 0.144,-4.626 -0.18,-4.626L-0.27,-4.626C-0.504,-4.699 -0.756,-4.699 -0.99,-4.699C-2.899,-4.699 -4.303,-2.988 -4.303,-2.214C-4.303,-1.98 -4.177,-1.818 -3.907,-1.818C-3.475,-1.818 -2.719,-2.178 -1.495,-3.132C-0.9,-3.654 -0.504,-3.906 -0.216,-3.906C0.27,-3.906 0.432,-3.186 0.648,-1.836C1.584,-2.466 2.629,-3.096 3.781,-3.762L3.907,-3.762C3.997,-3.762 4.069,-3.744 4.123,-3.654C4.123,-3.618 4.141,-3.582 4.141,-3.546C4.141,-3.456 4.105,-3.366 4.015,-3.33C2.791,-2.646 1.692,-1.962 0.72,-1.313C0.846,-0.305 0.9,0.613 0.9,1.477C0.9,4.52 0.09,6.591 -0.99,7.815C-1.854,8.823 -2.935,9.273 -3.871,9.273C-4.213,9.273 -4.52,9.22 -4.826,9.111" style="fill:rgb(25,84,42);fill-rule:nonzero;"/>
            </g>
            <g transform="matrix(1,0,0,1,532.287,139.633)">
                <path d="M0,1.405L0.504,-8.534C-5.348,-7.544 -10.857,-6.32 -11.793,-5.581C-10.803,-5.275 -2.539,-2.7 -0.216,4.34L0,1.405ZM-0.738,12.136L-0.324,5.87C-1.818,-1.602 -9.975,-4.465 -11.775,-5.077C-12.027,-5.167 -12.171,-5.221 -12.226,-5.293C-12.315,-5.365 -12.352,-5.455 -12.352,-5.563C-12.352,-5.671 -12.297,-5.779 -12.171,-5.887C-12.171,-5.906 -12.171,-5.906 -12.153,-5.906C-11.415,-6.59 -7.22,-7.616 -2.232,-8.534C-1.332,-8.678 -0.396,-8.858 0.54,-9.02C0.504,-9.02 0.468,-9.038 0.432,-9.038C0.36,-9.092 0.306,-9.164 0.306,-9.254C0.306,-9.29 0.306,-9.326 0.342,-9.363L0.396,-9.722C0.45,-10.191 0.54,-10.839 0.792,-10.965C0.864,-10.983 0.9,-11.001 0.937,-11.001C1.062,-11.001 1.152,-10.911 1.261,-10.731C1.278,-10.695 1.296,-10.641 1.296,-10.623L1.188,-9.11C5.258,-9.759 9.453,-10.281 12.532,-10.407C12.964,-10.407 13.378,-10.425 13.774,-10.425C15.971,-10.425 17.357,-10.137 17.394,-9.434L17.394,-9.416C17.394,-9.308 17.285,-9.2 17.177,-9.182C17.033,-9.182 16.925,-9.29 16.925,-9.434C16.907,-9.812 15.845,-9.956 14.188,-9.956C13.684,-9.956 13.144,-9.956 12.55,-9.921C9.471,-9.794 5.24,-9.272 1.152,-8.624C0.522,0.649 0.738,-3.421 0.216,6.068C0.342,6.77 0.396,7.509 0.396,8.283C0.396,9.489 0.234,10.803 -0.108,12.208C-0.144,12.334 -0.288,12.406 -0.414,12.406C-0.576,12.406 -0.738,12.298 -0.738,12.136" style="fill:rgb(25,84,42);fill-rule:nonzero;"/>
            </g>
            <g transform="matrix(1,0,0,1,538.457,132.161)">
                <path d="M0,14.747L0,14.279C0,13.937 0.018,13.433 0.036,12.838C0.126,9.795 0.468,3.998 1.081,1.297C1.134,1.117 1.278,-0.252 1.71,-0.252C1.854,-0.252 1.945,-0.197 1.999,-0.089C2.071,0 2.071,0.126 2.071,0.289C2.071,0.685 1.927,1.207 1.927,1.315L1.909,1.405C1.71,2.161 1.495,3.926 1.278,5.942C1.081,7.959 0.9,10.209 0.774,11.866C1.278,10.48 1.927,9.273 2.503,8.535C2.827,8.157 3.133,7.887 3.439,7.779C3.547,7.743 3.655,7.725 3.763,7.725C3.997,7.725 4.195,7.815 4.375,8.031C4.664,8.391 4.861,9.093 4.916,10.227C4.934,10.75 5.005,11.272 5.096,11.686C5.149,11.92 5.24,12.118 5.312,12.244C5.366,12.334 5.402,12.352 5.437,12.352L5.51,12.334C5.618,12.334 5.726,12.424 5.744,12.532L5.762,12.586C5.762,12.694 5.672,12.785 5.563,12.82C5.546,12.838 5.51,12.838 5.456,12.838C5.24,12.838 5.096,12.659 4.952,12.424C4.591,11.884 4.447,10.876 4.447,10.246C4.394,9.219 4.231,8.607 4.015,8.355C3.943,8.247 3.853,8.211 3.763,8.211C3.709,8.211 3.655,8.229 3.601,8.229C3.403,8.301 3.151,8.517 2.881,8.859C1.963,9.976 0.954,12.334 0.486,14.693L0.486,14.837C0.486,14.855 0.468,14.855 0.468,14.891C0.414,14.945 0.324,14.999 0.234,14.999C0.126,14.999 0.036,14.945 0,14.747" style="fill:rgb(25,84,42);fill-rule:nonzero;"/>
            </g>
            <g transform="matrix(1,0,0,1,550.752,139.544)">
                <path d="M0,3.907C-0.738,3.817 -1.296,3.547 -1.692,3.169C-2.052,2.809 -2.287,2.377 -2.358,1.945C-2.484,2.071 -2.575,2.178 -2.701,2.286C-2.917,2.503 -3.151,2.719 -3.367,2.899C-4.141,3.583 -4.663,3.853 -5.023,3.871L-5.059,3.871C-5.437,3.871 -5.635,3.619 -5.635,3.223C-5.635,3.097 -5.617,2.971 -5.582,2.826C-5.474,2.359 -5.167,1.764 -4.771,1.224C-4.195,0.558 -3.421,-0.018 -2.575,-0.018C-2.305,-0.018 -2.034,0.036 -1.764,0.162C-1.602,0.216 -1.53,0.342 -1.53,0.486C-1.53,0.684 -1.656,0.846 -1.89,0.846L-1.999,0.846C-2.143,0.828 -2.305,0.792 -2.484,0.792C-2.701,0.792 -2.917,0.846 -3.133,0.954C-3.565,1.206 -3.961,1.566 -4.303,1.945C-4.627,2.359 -4.861,2.755 -4.933,3.079L-4.933,3.367C-4.663,3.313 -4.267,3.061 -3.691,2.538C-3.493,2.359 -3.277,2.16 -3.042,1.945C-2.809,1.728 -2.575,1.494 -2.34,1.206C-2.287,1.17 -2.232,1.134 -2.16,1.134C-2.106,1.134 -2.052,1.152 -1.999,1.206C-1.962,1.242 -1.926,1.296 -1.908,1.35L-1.908,1.44C-1.908,1.458 -1.908,1.476 -1.89,1.494C-1.764,1.998 -1.512,2.538 -1.044,2.935C-0.684,3.241 -0.162,3.439 0.541,3.439C0.703,3.439 0.829,3.439 0.973,3.421L1.009,3.421C1.099,3.403 1.188,3.385 1.279,3.367L1.314,3.367C1.909,3.259 2.485,2.989 3.133,2.538C3.817,2.107 4.574,1.458 5.546,0.612C5.6,0.558 5.654,0.558 5.726,0.558C5.78,0.558 5.852,0.558 5.888,0.63C5.942,0.684 5.942,0.738 5.942,0.792C5.942,0.846 5.924,0.918 5.87,0.972C4.897,1.836 4.124,2.467 3.421,2.935C2.701,3.439 2.071,3.709 1.405,3.835L1.369,3.853C1.261,3.871 1.152,3.871 1.044,3.889C0.829,3.907 0.648,3.925 0.468,3.925C0.306,3.925 0.145,3.907 0,3.907" style="fill:rgb(25,84,42);fill-rule:nonzero;"/>
            </g>
            <g transform="matrix(1,0,0,1,556.763,139.904)">
                <path d="M0,4.267L-0.036,3.871L-0.018,3.511C0.018,2.142 0.234,-0.234 0.234,-0.234L0.234,-0.27C0.271,-0.415 0.396,-0.486 0.559,-0.486L0.648,-0.486C0.667,-0.486 0.685,-0.486 0.72,-0.468C0.864,-0.432 0.973,-0.342 0.973,-0.198L0.738,2.971C0.829,2.754 0.937,2.575 1.026,2.376C1.314,1.908 1.603,1.476 1.891,1.188C2.305,0.738 2.647,0.558 2.917,0.558C4.124,0.558 4.268,3.907 6.194,3.907L6.374,3.889C7.562,3.727 9.327,2.79 12.082,0.324C12.118,0.27 12.172,0.27 12.226,0.27C12.298,0.27 12.37,0.288 12.406,0.342C12.46,0.378 12.478,0.432 12.478,0.486C12.478,0.558 12.442,0.63 12.388,0.666C9.615,3.151 7.725,4.177 6.446,4.375L6.338,4.375C6.194,4.393 6.068,4.411 5.942,4.411C5.168,4.411 4.627,4.069 4.213,3.619C3.835,3.187 3.583,2.646 3.349,2.178C3.169,1.746 2.971,1.368 2.791,1.26C2.755,1.26 2.755,1.242 2.755,1.242L2.683,1.242C2.539,1.242 2.395,1.35 2.233,1.512C1.963,1.782 1.711,2.161 1.458,2.611C1.135,3.205 0.847,3.853 0.63,4.375L0.612,4.411L0.594,4.465C0.559,4.537 0.522,4.591 0.468,4.645C0.378,4.717 0.306,4.753 0.234,4.753C0.09,4.753 0.018,4.591 0,4.267" style="fill:rgb(25,84,42);fill-rule:nonzero;"/>
            </g>
            <g transform="matrix(1,0,0,1,569.237,132.161)">
                <path d="M0,14.747L0,14.279C0,13.937 0.018,13.433 0.036,12.838C0.126,9.795 0.468,3.998 1.081,1.297C1.134,1.117 1.278,-0.252 1.71,-0.252C1.854,-0.252 1.945,-0.197 1.999,-0.089C2.071,0 2.071,0.126 2.071,0.289C2.071,0.685 1.927,1.207 1.927,1.315L1.909,1.405C1.71,2.161 1.495,3.926 1.278,5.942C1.081,7.959 0.9,10.209 0.774,11.866C1.278,10.48 1.927,9.273 2.503,8.535C2.827,8.157 3.133,7.887 3.439,7.779C3.547,7.743 3.655,7.725 3.763,7.725C3.997,7.725 4.195,7.815 4.375,8.031C4.664,8.391 4.861,9.093 4.916,10.227C4.934,10.75 5.005,11.272 5.096,11.686C5.149,11.92 5.24,12.118 5.312,12.244C5.366,12.334 5.402,12.352 5.437,12.352L5.51,12.334C5.618,12.334 5.726,12.424 5.744,12.532L5.762,12.586C5.762,12.694 5.672,12.785 5.564,12.82C5.546,12.838 5.51,12.838 5.456,12.838C5.24,12.838 5.096,12.659 4.952,12.424C4.591,11.884 4.447,10.876 4.447,10.246C4.394,9.219 4.231,8.607 4.015,8.355C3.943,8.247 3.853,8.211 3.763,8.211C3.709,8.211 3.655,8.229 3.601,8.229C3.403,8.301 3.151,8.517 2.881,8.859C1.962,9.976 0.955,12.334 0.486,14.693L0.486,14.837C0.486,14.855 0.468,14.855 0.468,14.891C0.414,14.945 0.324,14.999 0.234,14.999C0.126,14.999 0.036,14.945 0,14.747" style="fill:rgb(25,84,42);fill-rule:nonzero;"/>
            </g>
        </g>
    </g>
</svg>
