<?xml version="1.0" encoding="UTF-8" standalone="no"?>
<!DOCTYPE svg PUBLIC "-//W3C//DTD SVG 1.1//EN" "http://www.w3.org/Graphics/SVG/1.1/DTD/svg11.dtd">
<svg width="100%" height="100%" viewBox="0 0 1191 429" version="1.1" xmlns="http://www.w3.org/2000/svg" xmlns:xlink="http://www.w3.org/1999/xlink" xml:space="preserve" xmlns:serif="http://www.serif.com/" style="fill-rule:evenodd;clip-rule:evenodd;stroke-linejoin:round;stroke-miterlimit:2;">
    <g transform="matrix(1,0,0,1,-122,-198)">
        <g id="Layer-1" serif:id="Layer 1">
            <g transform="matrix(0.861929,0.50703,0.50703,-0.861929,275.204,355.178)">
                <path d="M0.779,0.228C3.122,1.051 6.282,1.764 4.788,3.783C4.288,4.459 1.583,5.112 0.779,4.79C-1.353,3.936 -4.296,2.528 -4.561,1.371C-5.067,-0.837 -1.56,0.072 0.779,0.228" style="fill:rgb(227,238,212);fill-rule:nonzero;"/>
            </g>
            <g transform="matrix(1,0,0,1,139.67,514.389)">
                <path d="M0,-215.193C-23.484,-177.83 -11.332,-117.478 12.973,3.225C14.711,11.858 18.127,27.89 30.38,42.919C49.074,65.85 76.596,72.044 90.776,75.036C203.694,98.862 315.457,102.611 315.457,102.611C420.119,106.121 384.111,106.146 429.782,106.935C593.578,109.763 725.107,103.722 748.478,102.611C993.966,90.933 1117.26,84.25 1144.02,42.919C1186.27,-22.318 1148.11,-123.691 1107.97,-230.325C1102.52,-244.799 1093.24,-265.363 1072.92,-280.14C1053.18,-294.496 1032.09,-296.796 1022.18,-297.73C844.22,-314.514 695.373,-298.751 695.373,-298.751C637.727,-292.647 565.753,-285.025 476.819,-285.474C282.783,-286.456 186.645,-324.956 66.797,-267.696C26.045,-248.226 9.726,-230.666 0,-215.193" style="fill:rgb(27,84,42);fill-rule:nonzero;"/>
            </g>
            <text x="253.937px" y="474.728px" style="font-family:'Bitter-Medium', 'Bitter';font-weight:500;font-size:202.079px;fill:white;">G<tspan x="399.433px " y="474.728px ">ử</tspan>i ng<tspan x="869.67px 974.953px " y="474.728px 474.728px ">ay</tspan> !</text>
            <g transform="matrix(1,0,0,1,1154.76,469.305)">
                <path d="M0,-18.227C1.683,-20.795 2.988,-23.306 4.811,-25.409C6.316,-27.144 8.246,-28.68 10.32,-29.802C14.118,-31.856 18.52,-29.984 20.092,-25.871C21.769,-21.483 21.135,-17.153 19.827,-13.123C18.073,-7.722 15.729,-2.52 13.489,2.703C11.731,6.803 9.745,10.802 7.87,14.851C7.185,16.331 6.003,17.041 4.355,16.113C2.667,15.161 0.96,14.079 -0.399,12.75C-7.424,5.877 -13.928,-1.398 -18.628,-9.836C-20.578,-13.337 -22.308,-16.995 -23.601,-20.711C-25.042,-24.857 -24.946,-28.965 -21.702,-32.216C-18.73,-35.195 -14.578,-35.268 -10.907,-32.506C-6.516,-29.203 -3.477,-24.998 -1.173,-20.292C-0.842,-19.616 -0.425,-18.97 0,-18.227" style="fill:white;fill-rule:nonzero;"/>
            </g>
        </g>
    </g>
</svg>
